<svg width="168" height="132" viewBox="0 0 168 132" fill="none" xmlns="http://www.w3.org/2000/svg">
<path fill-rule="evenodd" clip-rule="evenodd" d="M12 4C7.589 4 4 7.589 4 12C4 16.411 7.589 20 12 20C16.411 20 20 16.411 20 12C20 7.589 16.411 4 12 4ZM12 22C6.486 22 2 17.514 2 12C2 6.486 6.486 2 12 2C17.514 2 22 6.486 22 12C22 17.514 17.514 22 12 22Z" fill="#FFD6D9"/>
<path fill-rule="evenodd" clip-rule="evenodd" d="M48 4C43.589 4 40 7.589 40 12C40 16.411 43.589 20 48 20C52.411 20 56 16.411 56 12C56 7.589 52.411 4 48 4ZM48 22C42.486 22 38 17.514 38 12C38 6.486 42.486 2 48 2C53.514 2 58 6.486 58 12C58 17.514 53.514 22 48 22Z" fill="#FFD6D9"/>
<path fill-rule="evenodd" clip-rule="evenodd" d="M84 4C79.589 4 76 7.589 76 12C76 16.411 79.589 20 84 20C88.411 20 92 16.411 92 12C92 7.589 88.411 4 84 4ZM84 22C78.486 22 74 17.514 74 12C74 6.486 78.486 2 84 2C89.514 2 94 6.486 94 12C94 17.514 89.514 22 84 22Z" fill="#FFD6D9"/>
<path fill-rule="evenodd" clip-rule="evenodd" d="M120 4C115.589 4 112 7.589 112 12C112 16.411 115.589 20 120 20C124.411 20 128 16.411 128 12C128 7.589 124.411 4 120 4ZM120 22C114.486 22 110 17.514 110 12C110 6.486 114.486 2 120 2C125.514 2 130 6.486 130 12C130 17.514 125.514 22 120 22Z" fill="#FFD6D9"/>
<path fill-rule="evenodd" clip-rule="evenodd" d="M156 4C151.589 4 148 7.589 148 12C148 16.411 151.589 20 156 20C160.411 20 164 16.411 164 12C164 7.589 160.411 4 156 4ZM156 22C150.486 22 146 17.514 146 12C146 6.486 150.486 2 156 2C161.514 2 166 6.486 166 12C166 17.514 161.514 22 156 22Z" fill="#FFD6D9"/>
<path fill-rule="evenodd" clip-rule="evenodd" d="M12 40C7.589 40 4 43.589 4 48C4 52.411 7.589 56 12 56C16.411 56 20 52.411 20 48C20 43.589 16.411 40 12 40ZM12 58C6.486 58 2 53.514 2 48C2 42.486 6.486 38 12 38C17.514 38 22 42.486 22 48C22 53.514 17.514 58 12 58Z" fill="#FFD6D9"/>
<path fill-rule="evenodd" clip-rule="evenodd" d="M48 40C43.589 40 40 43.589 40 48C40 52.411 43.589 56 48 56C52.411 56 56 52.411 56 48C56 43.589 52.411 40 48 40ZM48 58C42.486 58 38 53.514 38 48C38 42.486 42.486 38 48 38C53.514 38 58 42.486 58 48C58 53.514 53.514 58 48 58Z" fill="#FFD6D9"/>
<path fill-rule="evenodd" clip-rule="evenodd" d="M84 40C79.589 40 76 43.589 76 48C76 52.411 79.589 56 84 56C88.411 56 92 52.411 92 48C92 43.589 88.411 40 84 40ZM84 58C78.486 58 74 53.514 74 48C74 42.486 78.486 38 84 38C89.514 38 94 42.486 94 48C94 53.514 89.514 58 84 58Z" fill="#FFD6D9"/>
<path fill-rule="evenodd" clip-rule="evenodd" d="M120 40C115.589 40 112 43.589 112 48C112 52.411 115.589 56 120 56C124.411 56 128 52.411 128 48C128 43.589 124.411 40 120 40ZM120 58C114.486 58 110 53.514 110 48C110 42.486 114.486 38 120 38C125.514 38 130 42.486 130 48C130 53.514 125.514 58 120 58Z" fill="#FFD6D9"/>
<path fill-rule="evenodd" clip-rule="evenodd" d="M156 40C151.589 40 148 43.589 148 48C148 52.411 151.589 56 156 56C160.411 56 164 52.411 164 48C164 43.589 160.411 40 156 40ZM156 58C150.486 58 146 53.514 146 48C146 42.486 150.486 38 156 38C161.514 38 166 42.486 166 48C166 53.514 161.514 58 156 58Z" fill="#FFD6D9"/>
<path fill-rule="evenodd" clip-rule="evenodd" d="M12 76C7.589 76 4 79.589 4 84C4 88.411 7.589 92 12 92C16.411 92 20 88.411 20 84C20 79.589 16.411 76 12 76ZM12 94C6.486 94 2 89.514 2 84C2 78.486 6.486 74 12 74C17.514 74 22 78.486 22 84C22 89.514 17.514 94 12 94Z" fill="#FFD6D9"/>
<path fill-rule="evenodd" clip-rule="evenodd" d="M48 76C43.589 76 40 79.589 40 84C40 88.411 43.589 92 48 92C52.411 92 56 88.411 56 84C56 79.589 52.411 76 48 76ZM48 94C42.486 94 38 89.514 38 84C38 78.486 42.486 74 48 74C53.514 74 58 78.486 58 84C58 89.514 53.514 94 48 94Z" fill="#FFD6D9"/>
<path fill-rule="evenodd" clip-rule="evenodd" d="M84 76C79.589 76 76 79.589 76 84C76 88.411 79.589 92 84 92C88.411 92 92 88.411 92 84C92 79.589 88.411 76 84 76ZM84 94C78.486 94 74 89.514 74 84C74 78.486 78.486 74 84 74C89.514 74 94 78.486 94 84C94 89.514 89.514 94 84 94Z" fill="#FFD6D9"/>
<path fill-rule="evenodd" clip-rule="evenodd" d="M120 76C115.589 76 112 79.589 112 84C112 88.411 115.589 92 120 92C124.411 92 128 88.411 128 84C128 79.589 124.411 76 120 76ZM120 94C114.486 94 110 89.514 110 84C110 78.486 114.486 74 120 74C125.514 74 130 78.486 130 84C130 89.514 125.514 94 120 94Z" fill="#FFD6D9"/>
<path fill-rule="evenodd" clip-rule="evenodd" d="M156 76C151.589 76 148 79.589 148 84C148 88.411 151.589 92 156 92C160.411 92 164 88.411 164 84C164 79.589 160.411 76 156 76ZM156 94C150.486 94 146 89.514 146 84C146 78.486 150.486 74 156 74C161.514 74 166 78.486 166 84C166 89.514 161.514 94 156 94Z" fill="#FFD6D9"/>
<path fill-rule="evenodd" clip-rule="evenodd" d="M12 112C7.589 112 4 115.589 4 120C4 124.411 7.589 128 12 128C16.411 128 20 124.411 20 120C20 115.589 16.411 112 12 112ZM12 130C6.486 130 2 125.514 2 120C2 114.486 6.486 110 12 110C17.514 110 22 114.486 22 120C22 125.514 17.514 130 12 130Z" fill="#FFD6D9"/>
<path fill-rule="evenodd" clip-rule="evenodd" d="M48 112C43.589 112 40 115.589 40 120C40 124.411 43.589 128 48 128C52.411 128 56 124.411 56 120C56 115.589 52.411 112 48 112ZM48 130C42.486 130 38 125.514 38 120C38 114.486 42.486 110 48 110C53.514 110 58 114.486 58 120C58 125.514 53.514 130 48 130Z" fill="#FFD6D9"/>
<path fill-rule="evenodd" clip-rule="evenodd" d="M84 112C79.589 112 76 115.589 76 120C76 124.411 79.589 128 84 128C88.411 128 92 124.411 92 120C92 115.589 88.411 112 84 112ZM84 130C78.486 130 74 125.514 74 120C74 114.486 78.486 110 84 110C89.514 110 94 114.486 94 120C94 125.514 89.514 130 84 130Z" fill="#FFD6D9"/>
<path fill-rule="evenodd" clip-rule="evenodd" d="M120 112C115.589 112 112 115.589 112 120C112 124.411 115.589 128 120 128C124.411 128 128 124.411 128 120C128 115.589 124.411 112 120 112ZM120 130C114.486 130 110 125.514 110 120C110 114.486 114.486 110 120 110C125.514 110 130 114.486 130 120C130 125.514 125.514 130 120 130Z" fill="#FFD6D9"/>
<path fill-rule="evenodd" clip-rule="evenodd" d="M156 112C151.589 112 148 115.589 148 120C148 124.411 151.589 128 156 128C160.411 128 164 124.411 164 120C164 115.589 160.411 112 156 112ZM156 130C150.486 130 146 125.514 146 120C146 114.486 150.486 110 156 110C161.514 110 166 114.486 166 120C166 125.514 161.514 130 156 130Z" fill="#FFD6D9"/>
</svg>
