<svg width="64" height="64" viewBox="0 0 64 64" fill="none" xmlns="http://www.w3.org/2000/svg">
<path d="M0 8C0 3.58172 3.58172 0 8 0H32C49.6731 0 64 14.3269 64 32C64 49.6731 49.6731 64 32 64H8C3.58172 64 0 60.4183 0 56V8Z" fill="#FF3DB1"/>
<path fill-rule="evenodd" clip-rule="evenodd" d="M37.4004 40C30.0114 40 24.0004 33.988 24.0004 26.6C24.0004 25.166 25.1664 24 26.6004 24C26.7094 24 26.8174 24.007 26.9274 24.021L27.9884 28.642C27.8571 28.7103 27.7166 28.7838 27.5795 28.8555L27.4504 28.923C26.5884 29.373 25.9084 29.729 26.2654 30.514C27.4414 33.86 30.1404 36.56 33.4464 37.72C34.2887 38.0575 34.6155 37.4325 35.0674 36.5684L35.0734 36.557C35.1253 36.4586 35.1788 36.356 35.2318 36.2543C35.2747 36.172 35.3172 36.0903 35.3584 36.012L39.9784 37.072C39.9934 37.18 40.0004 37.289 40.0004 37.4C40.0004 38.834 38.8344 40 37.4004 40ZM41.7514 35.908C41.6384 35.583 41.3664 35.339 41.0304 35.262L35.0664 33.893C34.7374 33.819 34.3934 33.912 34.1504 34.146C34.0074 34.282 34.0044 34.286 33.3544 35.527C31.2244 34.557 29.4794 32.818 28.4754 30.644C29.7144 29.995 29.7174 29.992 29.8544 29.85C30.0884 29.606 30.1824 29.262 30.1074 28.934L28.7384 22.97C28.6614 22.634 28.4164 22.361 28.0914 22.248C27.8534 22.166 27.6084 22.104 27.3664 22.065C27.1174 22.022 26.8604 22 26.6004 22C24.0634 22 22.0004 24.063 22.0004 26.6C22.0004 35.092 28.9084 42 37.4004 42C39.9364 42 42.0004 39.937 42.0004 37.4C42.0004 37.142 41.9774 36.887 41.9354 36.639C41.8954 36.389 41.8334 36.144 41.7514 35.908ZM33 28C34.654 28 36 29.346 36 31C36 31.553 36.447 32 37 32C37.553 32 38 31.553 38 31C38 28.243 35.757 26 33 26C32.448 26 32 26.447 32 27C32 27.553 32.448 28 33 28ZM40 31C40 27.141 36.859 24 33 24C32.448 24 32 23.553 32 23C32 22.447 32.448 22 33 22C37.963 22 42 26.037 42 31C42 31.553 41.553 32 41 32C40.447 32 40 31.553 40 31Z" fill="white"/>
</svg>
