<svg width="64" height="64" viewBox="0 0 64 64" fill="none" xmlns="http://www.w3.org/2000/svg">
<path d="M0 36C0 16.1178 16.1178 0 36 0H60C62.2091 0 64 1.79086 64 4V60C64 62.2091 62.2091 64 60 64H4C1.79086 64 0 62.2091 0 60V36Z" fill="#FFAA00"/>
<path fill-rule="evenodd" clip-rule="evenodd" d="M40.3032 33.4258C39.7772 33.2588 39.2152 33.5498 39.0472 34.0758C38.1102 37.0218 35.3522 38.9998 32.1842 38.9998C28.2222 38.9998 25.0002 35.8598 25.0002 31.9998C25.0002 28.1408 28.2222 24.9998 32.1842 24.9998C33.9122 24.9998 35.5422 25.6018 36.8292 26.6698L34.6632 26.3128C34.1132 26.2128 33.6032 26.5918 33.5132 27.1358C33.4232 27.6808 33.7922 28.1958 34.3372 28.2848L38.5832 28.9868C38.6382 28.9958 38.6942 28.9998 38.7472 28.9998C38.8662 28.9998 38.9822 28.9788 39.0902 28.9388C39.1272 28.9248 39.1572 28.8988 39.1932 28.8798C39.2592 28.8458 39.3282 28.8158 39.3852 28.7678C39.4212 28.7388 39.4442 28.6968 39.4752 28.6628C39.5222 28.6138 39.5722 28.5668 39.6072 28.5068C39.6322 28.4638 39.6422 28.4128 39.6612 28.3648C39.6852 28.3058 39.7172 28.2508 39.7292 28.1858L40.4832 24.1858C40.5852 23.6428 40.2282 23.1188 39.6852 23.0178C39.1442 22.9198 38.6192 23.2728 38.5172 23.8148L38.2452 25.2558C36.5812 23.8148 34.4482 22.9998 32.1842 22.9998C27.1202 22.9998 23.0002 27.0368 23.0002 31.9998C23.0002 36.9628 27.1202 40.9998 32.1842 40.9998C36.2262 40.9998 39.7502 38.4608 40.9532 34.6818C41.1202 34.1558 40.8292 33.5938 40.3032 33.4258Z" fill="white"/>
</svg>
