<svg width="64" height="64" viewBox="0 0 64 64" fill="none" xmlns="http://www.w3.org/2000/svg">
<path d="M0 32C0 14.3269 14.3269 0 32 0H60C62.2091 0 64 1.79086 64 4V60C64 62.2091 62.2091 64 60 64H32C14.3269 64 0 49.6731 0 32Z" fill="#0095FF"/>
<path fill-rule="evenodd" clip-rule="evenodd" d="M34 27C34 25.897 33.103 25 32 25C30.897 25 30 25.897 30 27C30 28.103 30.897 29 32 29C33.103 29 34 28.103 34 27ZM36 27C36 29.206 34.206 31 32 31C29.794 31 28 29.206 28 27C28 24.794 29.794 23 32 23C34.206 23 36 24.794 36 27ZM25 40C25 36.14 28.141 33 32 33C35.859 33 39 36.14 39 40C39 40.552 38.553 41 38 41C37.447 41 37 40.552 37 40C37 37.243 34.757 35 32 35C29.243 35 27 37.243 27 40C27 40.552 26.553 41 26 41C25.447 41 25 40.552 25 40Z" fill="white"/>
</svg>
