<svg width="24" height="24" viewBox="0 0 24 24" fill="none" xmlns="http://www.w3.org/2000/svg">
<g clip-path="url(#clip0_3290_530)">
<path d="M12 21C16.9706 21 21 16.9706 21 12C21 7.02944 16.9706 3 12 3C7.02944 3 3 7.02944 3 12C3 16.9706 7.02944 21 12 21Z" stroke="#EB22BD" stroke-width="2" stroke-linecap="round" stroke-linejoin="round"/>
<path d="M7 8.5L10 11.5" stroke="#EB22BD" stroke-width="2" stroke-linecap="round" stroke-linejoin="round"/>
<path d="M7 11.5L10 8.5" stroke="#EB22BD" stroke-width="2" stroke-linecap="round" stroke-linejoin="round"/>
<path d="M14 8.5L17 11.5" stroke="#EB22BD" stroke-width="2" stroke-linecap="round" stroke-linejoin="round"/>
<path d="M14 11.5L17 8.5" stroke="#EB22BD" stroke-width="2" stroke-linecap="round" stroke-linejoin="round"/>
<path d="M9.5 15C9.82588 15.3326 10.2148 15.5968 10.6441 15.7772C11.0734 15.9576 11.5344 16.0505 12 16.0505C12.4656 16.0505 12.9266 15.9576 13.3559 15.7772C13.7852 15.5968 14.1741 15.3326 14.5 15" stroke="#EB22BD" stroke-width="2" stroke-linecap="round" stroke-linejoin="round"/>
</g>
<defs>
<clipPath id="clip0_3290_530">
<rect width="24" height="24" fill="white"/>
</clipPath>
</defs>
</svg>
