<svg width="19" height="18" viewBox="0 0 19 18" fill="none" xmlns="http://www.w3.org/2000/svg">
<path fill-rule="evenodd" clip-rule="evenodd" d="M16 16C15.448 16 15 15.552 15 15C15 14.448 15.448 14 16 14C16.552 14 17 14.448 17 15C17 15.552 16.552 16 16 16ZM3 10C2.448 10 2 9.552 2 9C2 8.448 2.448 8 3 8C3.552 8 4 8.448 4 9C4 9.552 3.552 10 3 10ZM16 2C16.552 2 17 2.448 17 3C17 3.552 16.552 4 16 4C15.448 4 15 3.552 15 3C15 2.448 15.448 2 16 2ZM16 12C15.183 12 14.443 12.33 13.901 12.861L5.966 9.335C5.979 9.224 6 9.114 6 9C6 8.886 5.979 8.776 5.966 8.665L13.901 5.139C14.443 5.67 15.183 6 16 6C17.654 6 19 4.654 19 3C19 1.346 17.654 0 16 0C14.346 0 13 1.346 13 3C13 3.114 13.021 3.224 13.034 3.335L5.099 6.861C4.557 6.33 3.817 6 3 6C1.346 6 0 7.346 0 9C0 10.654 1.346 12 3 12C3.817 12 4.557 11.67 5.099 11.139L13.034 14.665C13.021 14.776 13 14.886 13 15C13 16.654 14.346 18 16 18C17.654 18 19 16.654 19 15C19 13.346 17.654 12 16 12Z" fill="#7831EF"/>
</svg>
