<svg width="20" height="20" viewBox="0 0 20 20" fill="none" xmlns="http://www.w3.org/2000/svg">
<path fill-rule="evenodd" clip-rule="evenodd" d="M5.0002 9.99927C5.0002 9.44727 5.4482 8.99927 6.0002 8.99927C6.5522 8.99927 7.0002 9.44727 7.0002 9.99927C7.0002 10.5513 6.5522 10.9993 6.0002 10.9993C5.4482 10.9993 5.0002 10.5513 5.0002 9.99927ZM10.0002 8.99927C9.4482 8.99927 9.0002 9.44727 9.0002 9.99927C9.0002 10.5513 9.4482 10.9993 10.0002 10.9993C10.5522 10.9993 11.0002 10.5513 11.0002 9.99927C11.0002 9.44727 10.5522 8.99927 10.0002 8.99927ZM14.0002 8.99927C13.4482 8.99927 13.0002 9.44727 13.0002 9.99927C13.0002 10.5513 13.4482 10.9993 14.0002 10.9993C14.5522 10.9993 15.0002 10.5513 15.0002 9.99927C15.0002 9.44727 14.5522 8.99927 14.0002 8.99927ZM17.8986 11.2942C17.3916 14.5482 14.7686 17.2472 11.5196 17.8562C9.9506 18.1522 8.3526 17.9832 6.9026 17.3692C6.4916 17.1952 6.0666 17.1072 5.6496 17.1072C5.4596 17.1072 5.2716 17.1252 5.0866 17.1622L2.2746 17.7242L2.8376 14.9072C2.9556 14.3222 2.8836 13.6962 2.6306 13.0972C2.0166 11.6472 1.8486 10.0502 2.1436 8.48017C2.7526 5.23117 5.4506 2.60817 8.7056 2.10117C11.2956 1.69817 13.8286 2.51417 15.6566 4.34217C17.4856 6.17117 18.3026 8.70517 17.8986 11.2942ZM17.0716 2.92817C14.7866 0.644171 11.6266 -0.374829 8.3976 0.124171C4.3206 0.760171 0.9406 4.04417 0.1776 8.11117C-0.1904 10.0692 0.0216002 12.0632 0.7886 13.8762C0.8856 14.1072 0.9156 14.3222 0.8776 14.5152L0.0196002 18.8032C-0.0463998 19.1312 0.0566002 19.4702 0.2936 19.7062C0.4826 19.8962 0.7376 19.9992 1.0006 19.9992C1.0656 19.9992 1.1306 19.9932 1.1966 19.9802L5.4796 19.1232C5.7256 19.0762 5.9636 19.1452 6.1226 19.2112C7.9376 19.9782 9.9316 20.1892 11.8876 19.8222C15.9556 19.0592 19.2396 15.6792 19.8756 11.6022C20.3776 8.37517 19.3566 5.21317 17.0716 2.92817Z" fill="#EB5857"/>
</svg>
