<svg width="18" height="18" viewBox="0 0 18 18" fill="none" xmlns="http://www.w3.org/2000/svg">
<path fill-rule="evenodd" clip-rule="evenodd" d="M5 7C5.828 7 6.5 6.328 6.5 5.5C6.5 4.672 5.828 4 5 4C4.172 4 3.5 4.672 3.5 5.5C3.5 6.328 4.172 7 5 7ZM15 16H3.561L10.566 10.155C10.812 9.946 11.258 9.947 11.499 10.154L16 13.994V15C16 15.552 15.552 16 15 16ZM3 2H15C15.552 2 16 2.448 16 3V11.364L12.797 8.632C11.807 7.79 10.258 7.79 9.277 8.626L2 14.698V3C2 2.448 2.448 2 3 2ZM15 0H3C1.346 0 0 1.346 0 3V15C0 16.654 1.346 18 3 18H15C16.654 18 18 16.654 18 15V3C18 1.346 16.654 0 15 0Z" fill="#7831EF"/>
</svg>
