<svg width="18" height="18" viewBox="0 0 18 18" fill="none" xmlns="http://www.w3.org/2000/svg">
<path fill-rule="evenodd" clip-rule="evenodd" d="M6.69824 11L7.42724 7H11.3022L10.5732 11H6.69824ZM17.0002 11H12.6982L13.4272 7H17.0002C17.5502 7 18.0002 6.55 18.0002 6C18.0002 5.45 17.5502 5 17.0002 5H13.7902L14.4842 1.189C14.5842 0.640999 14.2022 0.111999 13.6352 0.0159993C13.0682 -0.0810007 12.5232 0.288999 12.4232 0.837999L11.6652 5H7.79024L8.48424 1.189C8.58424 0.640999 8.20224 0.111999 7.63524 0.0159993C7.06824 -0.0810007 6.52324 0.288999 6.42324 0.837999L5.66524 5H1.00024C0.450244 5 0.000244141 5.45 0.000244141 6C0.000244141 6.55 0.450244 7 1.00024 7H5.30224L4.57324 11H1.00024C0.450244 11 0.000244141 11.45 0.000244141 12C0.000244141 12.55 0.450244 13 1.00024 13H4.20924L3.51524 16.811C3.41624 17.359 3.79824 17.888 4.36524 17.984C4.93124 18.081 5.47724 17.711 5.57624 17.162L6.33424 13H10.2092L9.51524 16.811C9.41624 17.359 9.79824 17.888 10.3652 17.984C10.9312 18.081 11.4772 17.711 11.5762 17.162L12.3342 13H17.0002C17.5502 13 18.0002 12.55 18.0002 12C18.0002 11.45 17.5502 11 17.0002 11Z" fill="#27AE60"/>
</svg>
