<svg width="18" height="21" viewBox="0 0 18 21" fill="none" xmlns="http://www.w3.org/2000/svg">
<path fill-rule="evenodd" clip-rule="evenodd" d="M12 11H10V9C10 8.447 9.552 8 9 8C8.448 8 8 8.447 8 9V12C8 12.553 8.448 13 9 13H12C12.552 13 13 12.553 13 12C13 11.447 12.552 11 12 11ZM9 18.75C5.278 18.75 2.25 15.722 2.25 12C2.25 8.278 5.278 5.25 9 5.25C12.722 5.25 15.75 8.278 15.75 12C15.75 15.722 12.722 18.75 9 18.75ZM9.988 3.058C9.99 3.037 10 3.021 10 3V2H11C11.552 2 12 1.553 12 1C12 0.447 11.552 0 11 0H7C6.448 0 6 0.447 6 1C6 1.553 6.448 2 7 2H8V3C8 3.021 8.01 3.037 8.012 3.058C3.513 3.552 0 7.372 0 12C0 16.963 4.038 21 9 21C13.962 21 18 16.963 18 12C18 7.372 14.487 3.552 9.988 3.058Z" fill="#EB5857"/>
</svg>
