<svg width="20" height="20" viewBox="0 0 20 20" fill="none" xmlns="http://www.w3.org/2000/svg">
<path fill-rule="evenodd" clip-rule="evenodd" d="M9.52698 1.89973C11.709 -0.287271 15.23 -0.682271 17.662 1.21973C20.575 3.49773 20.766 7.74273 18.235 10.2797L16.812 11.7047C16.419 12.0987 15.783 12.0987 15.39 11.7047C14.997 11.3117 14.997 10.6727 15.39 10.2797L16.812 8.85373C18.467 7.19673 18.377 4.44173 16.54 2.90373C14.913 1.54073 12.471 1.80073 10.972 3.30273L9.69898 4.57773C9.30698 4.97173 8.66898 4.97173 8.27698 4.57773C7.88398 4.18473 7.87998 3.54973 8.45398 2.97473L9.52698 1.89973ZM11.2929 7.29303L7.29288 11.293C6.90188 11.684 6.90188 12.316 7.29288 12.707C7.48788 12.902 7.74388 13 7.99988 13C8.25588 13 8.51188 12.902 8.70688 12.707L12.7069 8.70703C13.0979 8.31603 13.0979 7.68403 12.7069 7.29303C12.3159 6.90203 11.6839 6.90203 11.2929 7.29303ZM10.2802 15.3965L9.00618 16.6675C7.50518 18.1645 5.05818 18.4225 3.43018 17.0655C1.59118 15.5335 1.50018 12.7875 3.15718 11.1345L4.58218 9.71453C4.97518 9.32253 4.97518 8.68653 4.58218 8.29353C4.18918 7.90253 3.55118 7.90253 3.15718 8.29353L1.88218 9.56653C-0.289821 11.7325 -0.670821 15.2165 1.20718 17.6405C3.47818 20.5735 7.73818 20.7715 10.2802 18.2375L11.7052 16.8175C12.0982 16.4245 12.0982 15.7895 11.7052 15.3965C11.3112 15.0035 10.6742 15.0035 10.2802 15.3965Z" fill="#EB22BD"/>
</svg>
