<svg width="20" height="20" viewBox="0 0 20 20" fill="none" xmlns="http://www.w3.org/2000/svg">
<path fill-rule="evenodd" clip-rule="evenodd" d="M5.20701 7.70699C4.81601 8.09799 4.18401 8.09799 3.79301 7.70699L0.793006 4.70699C0.402006 4.31599 0.402006 3.68399 0.793006 3.293L3.79301 0.292995C3.98801 0.0979938 4.24401 -5.72391e-06 4.50001 -5.72391e-06C4.75601 -5.72391e-06 5.01201 0.0979938 5.20701 0.292995C5.59801 0.683994 5.59801 1.31599 5.20701 1.70699L3.91401 2.99999H15.91C17.89 2.99999 19.5 4.58299 19.5 6.52899V8.99999C19.5 9.55299 19.053 9.99999 18.5 9.99999C17.947 9.99999 17.5 9.55299 17.5 8.99999V6.52899C17.5 5.68599 16.787 4.99999 15.91 4.99999L3.91401 4.99999L5.20701 6.29299C5.59801 6.68399 5.59801 7.31599 5.20701 7.70699ZM16.0858 17H4.08981C2.11081 17 0.499806 15.417 0.499806 13.471L0.499806 11C0.499806 10.447 0.946806 9.99999 1.49981 9.99999C2.05281 9.99999 2.49981 10.447 2.49981 11V13.471C2.49981 14.313 3.21281 15 4.08981 15H16.0858L14.7928 13.707C14.4028 13.316 14.4028 12.684 14.7928 12.293C14.9878 12.098 15.2438 12 15.4998 12C15.7558 12 16.0118 12.098 16.2068 12.293L19.2068 15.293C19.5978 15.684 19.5978 16.316 19.2068 16.707L16.2068 19.707C15.8168 20.098 15.1838 20.098 14.7928 19.707C14.4028 19.316 14.4028 18.684 14.7928 18.293L16.0858 17Z" fill="#27AE60"/>
</svg>
