<svg width="20" height="20" viewBox="0 0 20 20" fill="none" xmlns="http://www.w3.org/2000/svg">
<path fill-rule="evenodd" clip-rule="evenodd" d="M9.5271 1.89973C11.7091 -0.287271 15.2301 -0.682271 17.6621 1.21973C20.5751 3.49773 20.7661 7.74273 18.2351 10.2797L16.8121 11.7047C16.4191 12.0987 15.7831 12.0987 15.3901 11.7047C14.9971 11.3117 14.9971 10.6727 15.3901 10.2797L16.8121 8.85373C18.4671 7.19673 18.3771 4.44173 16.5401 2.90373C14.9131 1.54073 12.4711 1.80073 10.9721 3.30273L9.6991 4.57773C9.3071 4.97173 8.6691 4.97173 8.2771 4.57773C7.8841 4.18473 7.8801 3.54973 8.4541 2.97473L9.5271 1.89973ZM11.293 7.29303L7.293 11.293C6.902 11.684 6.902 12.316 7.293 12.707C7.488 12.902 7.744 13 8 13C8.256 13 8.512 12.902 8.707 12.707L12.707 8.70703C13.098 8.31603 13.098 7.68403 12.707 7.29303C12.316 6.90203 11.684 6.90203 11.293 7.29303ZM10.2803 15.3965L9.0063 16.6675C7.5053 18.1645 5.0583 18.4225 3.4303 17.0655C1.5913 15.5335 1.5003 12.7875 3.1573 11.1345L4.5823 9.71453C4.9753 9.32253 4.9753 8.68653 4.5823 8.29353C4.1893 7.90253 3.5513 7.90253 3.1573 8.29353L1.8823 9.56653C-0.289699 11.7325 -0.670699 15.2165 1.2073 17.6405C3.4783 20.5735 7.7383 20.7715 10.2803 18.2375L11.7053 16.8175C12.0983 16.4245 12.0983 15.7895 11.7053 15.3965C11.3113 15.0035 10.6743 15.0035 10.2803 15.3965Z" fill="#7831EF"/>
</svg>
